<svg width="1176" height="1350" viewBox="0 0 1176 1350" fill="none" xmlns="http://www.w3.org/2000/svg">
<path d="M805.766 886.71C805.814 887.165 805.861 887.381 805.861 887.381C818.368 886.039 830.922 884.674 843.524 883.26C856.102 881.799 868.465 881.056 880.611 881.056C885.259 880.936 890.434 882.158 896.136 884.698C901.886 887.261 905.241 890.208 906.199 893.514C907.589 898.066 907.565 903.529 906.103 909.902C904.618 916.227 902.03 920.707 898.341 923.318C875.916 942.557 851.909 957.219 826.37 967.306C800.878 977.416 772.895 979.549 742.42 973.727C713.718 968.815 690.191 955.758 671.791 934.531C653.439 913.328 643.376 888.028 641.603 858.631C639.878 831.798 643.328 805.97 651.953 781.102C660.626 756.185 673.372 733.904 690.191 714.21C706.985 694.54 726.991 679.303 750.182 668.498C764.222 661.741 778.477 658.004 792.924 657.285C807.419 656.59 821.961 660.424 836.528 668.785C849.801 676.787 860.295 688.215 867.961 703.093C875.628 717.995 876.898 732.227 871.795 745.835C868.776 753.957 865.685 758.174 862.499 758.485C859.36 758.749 856.126 759.731 852.82 761.456C847.884 764.594 843.284 765.074 839.02 762.893C834.731 760.737 831.473 758.006 829.245 754.748C820.045 742.864 811.827 735.485 804.616 732.61C797.38 729.687 788.036 732.993 776.536 742.577C760.173 756.185 748.577 772.045 741.749 790.11C734.969 808.199 731.71 827.293 731.974 847.418C732.357 858.799 735.807 868.07 742.324 875.21C748.889 882.374 758.065 886.59 769.828 887.86C775.77 888.507 781.759 888.531 787.845 887.956C793.906 887.333 799.872 886.902 805.766 886.71Z" fill="#C85C3F"/>
<mask id="mask0_1362_4" style="mask-type:luminance" maskUnits="userSpaceOnUse" x="12" y="0" width="1117" height="760">
<path d="M1128.84 0H12.4297V759.963H1128.84V0Z" fill="white"/>
</mask>
<g mask="url(#mask0_1362_4)">
<path d="M612.943 472.269C616.227 486.56 615.99 498.855 612.207 509.153C608.477 519.451 601.594 526.702 591.506 530.905C570.489 539.312 551.995 530.065 536.022 503.163C535.602 502.743 535.181 502.218 534.761 501.587C534.341 500.957 533.71 500.221 532.87 499.38C524.883 504.845 517.212 510.309 509.856 515.773C502.5 521.238 495.04 526.072 487.474 530.275C468.559 539.943 449.749 544.356 431.044 543.515C412.339 542.675 395.526 537 380.604 526.492C365.682 515.984 354.018 501.062 345.611 481.726C331.32 447.679 325.12 413.738 327.011 379.901C328.903 346.064 336.574 312.332 350.025 278.705C352.967 271.56 357.38 265.728 363.265 261.157C369.15 256.533 376.506 255.062 385.333 256.743C395 258.424 401.515 262.523 404.878 269.038C408.241 275.5 410.132 283.119 410.553 291.946C411.393 304.136 411.919 316.535 412.129 329.145C412.339 341.755 413.075 354.365 414.336 366.975C415.597 376.643 417.173 386.416 419.064 396.294C420.956 406.172 423.373 415.944 426.315 425.612C429.678 436.541 434.406 442.53 440.501 443.581C446.596 444.632 453.006 440.534 459.732 431.286C465.196 423.72 469.925 415.419 473.918 406.382C477.911 397.344 481.169 388.412 483.691 379.585C488.735 362.352 493.148 344.908 496.931 327.254C500.714 309.6 504.707 292.156 508.911 274.922C512.273 263.232 518.368 254.326 527.195 248.231C536.022 242.136 545.9 239.72 556.829 240.981C568.178 242.662 577.32 247.496 584.255 255.482C591.191 263.416 595.079 273.451 595.92 285.641C595.92 287.743 595.92 289.844 595.92 291.946C595.92 294.048 595.709 296.149 595.289 298.251C591.086 328.095 591.296 357.413 595.92 386.206C600.543 414.999 606.218 443.686 612.943 472.269Z" fill="#C85C3F"/>
<path d="M865.719 328.514C867.4 334.399 867.716 341.229 866.665 349.006C865.614 356.782 863.197 362.772 859.414 366.975C856.051 371.178 850.692 374.015 843.336 375.487C835.981 376.958 829.15 377.483 822.845 377.063C816.54 376.643 810.235 374.856 803.93 371.704C797.625 368.551 791.53 365.504 785.646 362.561C777.239 358.358 769.883 357.202 763.578 359.094C757.273 360.985 752.86 365.924 750.338 373.91C739.829 402.913 731.212 432.757 724.487 463.441C722.806 470.167 722.491 477.207 723.541 484.563C724.592 491.919 724.697 499.17 723.857 506.315C722.596 521.868 716.816 534.583 706.518 544.461C696.22 554.339 683.925 559.698 669.634 560.538C654.922 561.379 642.102 557.491 631.173 548.874C620.244 540.257 612.889 528.383 609.106 513.251C608.265 509.468 607.529 505.685 606.899 501.902C606.268 498.119 605.953 494.126 605.953 489.922C606.373 452.513 606.689 414.998 606.899 377.378C607.109 339.758 607.424 302.296 607.845 264.939C607.845 261.156 608.055 257.058 608.475 252.644C608.895 248.231 610.367 244.763 612.889 242.241C617.092 237.197 621.821 231.838 627.075 226.163C632.329 220.489 637.688 217.441 643.153 217.021C648.617 216.601 654.607 218.387 661.122 222.38C667.637 226.373 673.206 230.892 677.83 235.936C681.613 240.139 684.45 245.499 686.342 252.014C688.233 258.529 690.44 265.123 692.962 271.769C733.314 249.991 773.246 249.15 812.757 269.247C825.787 275.552 836.926 283.539 846.174 293.206C855.421 302.874 861.936 314.643 865.719 328.514Z" fill="#C85C3F"/>
<path d="M1117.87 328.514C1119.55 334.399 1119.86 341.229 1118.81 349.006C1117.76 356.782 1115.35 362.772 1111.56 366.975C1108.2 371.178 1102.84 374.015 1095.48 375.487C1088.13 376.958 1081.3 377.483 1074.99 377.063C1068.69 376.643 1062.38 374.856 1056.08 371.704C1049.77 368.551 1043.68 365.504 1037.79 362.561C1029.39 358.358 1022.03 357.202 1015.73 359.094C1009.42 360.985 1005.01 365.924 1002.49 373.91C991.978 402.913 983.361 432.757 976.636 463.441C974.954 470.167 974.639 477.207 975.69 484.563C976.741 491.919 976.846 499.17 976.005 506.315C974.744 521.868 968.964 534.583 958.666 544.461C948.368 554.339 936.073 559.698 921.782 560.538C907.07 561.379 894.25 557.491 883.322 548.874C872.393 540.257 865.037 528.383 861.254 513.251C860.413 509.468 859.678 505.685 859.047 501.902C858.417 498.119 858.102 494.126 858.102 489.922C858.522 452.513 858.837 414.998 859.047 377.378C859.257 339.758 859.573 302.296 859.993 264.939C859.993 261.156 860.203 257.058 860.624 252.644C861.044 248.231 862.515 244.763 865.037 242.241C869.24 237.197 873.969 231.838 879.223 226.163C884.477 220.489 889.837 217.441 895.301 217.021C900.765 216.601 906.755 218.387 913.27 222.38C919.785 226.373 925.355 230.892 929.979 235.936C933.762 240.139 936.599 245.499 938.49 252.014C940.382 258.529 942.589 265.123 945.111 271.769C985.463 249.991 1025.39 249.15 1064.91 269.247C1077.94 275.552 1089.07 283.539 1098.32 293.206C1107.57 302.874 1114.08 314.643 1117.87 328.514Z" fill="#C85C3F"/>
</g>
<mask id="mask1_1362_4" style="mask-type:luminance" maskUnits="userSpaceOnUse" x="46" y="383" width="1130" height="868">
<path d="M1175.91 383.344H46.0547V1250.91H1175.91V383.344Z" fill="white"/>
</mask>
<g mask="url(#mask1_1362_4)">
<path d="M234.477 542.331C239.941 539.888 245.405 537.997 250.87 536.657C256.386 535.343 261.194 534.135 265.266 533.084C283.34 534.345 299.943 537.392 315.076 542.226C330.208 547.008 344.105 554.889 356.794 565.87C363.939 572.122 369.115 579.216 372.346 587.202C375.63 595.136 375.814 603.989 372.871 613.788C369.982 623.114 365.148 629.393 358.37 632.598C351.566 635.75 344.079 637.721 335.882 638.483C330.339 638.693 324.559 639.008 318.543 639.428C312.58 639.849 306.616 640.164 300.679 640.374C266.133 641.924 245.537 660.813 238.89 697.014C238.391 698.433 237.944 699.93 237.524 701.533C237.156 703.161 236.999 704.633 236.999 705.946C236.631 722.628 236.578 734.739 236.788 742.305C237.051 749.871 238.391 754.784 240.782 757.017C243.146 759.276 247.665 759.828 254.337 758.698C260.984 757.516 270.257 756.045 282.184 754.284C285.389 754.153 288.726 753.917 292.167 753.549C295.661 753.207 299.024 752.997 302.255 752.918C316.048 753.339 327.58 757.437 336.828 765.213C346.075 772.989 351.802 783.077 354.061 795.477C355.874 808.376 353.378 820.224 346.6 830.995C339.796 841.793 329.524 849.043 315.811 852.747C307.194 855.348 298.288 857.371 289.12 858.842C279.925 860.261 270.73 861.338 261.483 862.1C254.127 862.809 249.215 864.701 246.771 867.774C244.381 870.874 243.54 876.339 244.249 884.167C245.72 902.11 246.824 919.791 247.612 937.234C248.453 954.678 249.136 972.385 249.714 990.302C249.924 995.346 250.081 1000.55 250.239 1005.85C250.449 1011.11 249.714 1015.89 248.032 1020.15C245.353 1025.77 241.937 1031.28 237.734 1036.75C233.531 1042.21 229.17 1045.68 224.704 1047.15C220.5 1048.7 215.036 1048.1 208.311 1045.37C201.585 1042.58 196.988 1039.14 194.545 1035.07C186.69 1020.51 179.308 1005.72 172.372 990.722C165.489 975.748 158.817 960.563 152.301 945.221C149.701 938.364 147.94 930.93 147.047 922.943C146.128 914.904 145.051 906.944 143.79 899.089C142.529 888.161 140.033 878.703 136.329 870.717C132.677 862.73 125.216 856.189 113.946 851.066C105.04 846.731 98.9453 840.453 95.6615 832.256C92.4302 824.06 92.0361 815.653 94.5056 807.036C96.9488 798.419 102.019 791.247 109.743 785.494C116.048 781.159 120.041 776.431 121.722 771.308C123.403 766.133 124.586 760.117 125.295 753.234C125.715 738.049 126.477 723.048 127.607 708.258C128.71 693.494 130.917 678.887 134.227 664.438C140.585 634.673 152.433 609.742 169.745 589.619C187.031 569.522 208.626 553.759 234.477 542.331Z" fill="#C85C3F"/>
<path d="M618.36 700.537C636.435 717.981 647.179 737.106 650.621 757.913C654.036 778.719 650.542 798.212 640.112 816.339C629.657 834.413 612.843 847.943 589.672 856.901C571.02 863.994 551.475 869.143 531.036 872.349C510.65 875.58 489.686 879.599 468.196 884.433C474.711 886.062 480.964 887.796 487.006 889.687C493.101 891.579 499.117 892.892 505.08 893.575C517.112 895.467 529.25 896.807 541.439 897.569C553.681 898.357 565.661 900.406 577.378 903.768C594.112 908.76 604.41 917.718 608.272 930.67C612.187 943.648 608.167 956.573 596.188 969.446C589.935 976.591 582.054 982.975 572.544 988.571C563.008 994.193 553.655 997.582 544.487 998.764C502.243 1004.23 466.357 999.972 436.881 985.944C407.458 971.941 385.338 951.371 370.574 924.26C355.862 897.096 349.373 866.411 351.133 832.207C352.237 810.98 355.258 790.541 360.17 770.838C365.057 751.082 373.201 732.036 384.55 713.673C398.972 689.661 417.966 672.112 441.505 661.026C465.096 649.887 490.815 646.629 518.636 651.253C558.069 656.875 591.301 673.294 618.36 700.537ZM559.829 768.736C560.722 768.684 561.747 768.29 562.876 767.58C564.058 766.897 565.53 766.004 567.29 764.953C558.095 752.842 546.851 744.41 533.558 739.628C520.317 734.794 507.97 734.164 496.569 737.737C486.06 741.31 478.389 746.984 473.555 754.76C468.722 762.484 465.096 771.652 462.732 782.292C479.676 779.928 496.175 777.668 512.226 775.567C528.33 773.413 544.198 771.127 559.829 768.736Z" fill="#C85C3F"/>
<path d="M1144.65 897.735C1148.7 908.191 1149.22 917.806 1146.23 926.633C1143.29 935.46 1138.03 943.709 1130.47 951.327C1119.25 962.335 1104.96 969.98 1087.59 974.235C1070.28 978.439 1052.34 979.358 1033.79 976.968C1015.29 974.524 999.164 968.219 985.45 958.053C952.507 934.803 933.329 902.963 927.865 862.532C925.553 848.818 923.898 834.842 922.926 820.604C922.006 806.312 921.139 792.284 920.299 778.465C920.088 771.53 918.854 765.934 916.621 761.652C914.44 757.396 910.053 754.191 903.485 752.089C894.159 748.674 886.725 743.63 881.208 736.957C875.664 730.232 874.115 722.219 876.584 712.893C878.686 705.958 882.495 699.075 888.038 692.192C893.634 685.256 899.623 680.527 906.007 678.005C914.125 674.091 920.299 669.756 924.502 664.975C928.758 660.22 930.938 653.258 931.017 644.064C931.227 635.736 931.989 627.513 933.329 619.369C934.721 611.251 935.982 603.055 937.112 594.779C941.158 566.486 952.874 552.273 972.21 552.116C992.097 551.905 1004.58 565.776 1009.62 593.729C1011.3 603.396 1012.38 613.222 1012.88 623.152C1013.43 633.03 1013.88 642.803 1014.24 652.47C1014.66 665.369 1021.31 671.858 1034.21 671.911C1042.54 672.068 1050.84 672.331 1059.11 672.751C1067.44 673.172 1075.56 674.17 1083.49 675.694C1096.44 678.505 1106.53 684.783 1113.76 694.504C1120.96 704.171 1124.32 714.732 1123.85 726.134C1123.27 738.192 1118.75 748.621 1110.29 757.448C1101.8 766.223 1091.16 771.293 1078.34 772.686C1069.15 773.894 1059.59 774.525 1049.66 774.577C1039.78 774.656 1028.38 774.892 1015.5 775.313C1017.74 789.131 1019.76 803.028 1021.6 817.031C1023.49 830.981 1025.83 844.852 1028.64 858.644C1030.66 866.84 1034.84 872.699 1041.14 876.193C1047.5 879.713 1054.83 880.869 1063.11 879.66C1068.62 878.557 1074.04 877.322 1079.29 875.982C1084.54 874.669 1089.93 873.671 1095.47 873.04C1105.98 871.779 1115.54 872.988 1124.16 876.613C1132.83 880.265 1139.66 887.305 1144.65 897.735Z" fill="#C85C3F"/>
</g>
<path d="M122.002 872.784C123.394 922.173 124.786 971.563 126.205 1020.95C127.676 1070.29 128.333 1119.6 128.202 1168.91C127.992 1185.04 126.258 1201.35 123.053 1217.88C119.9 1234.35 115.959 1250.51 111.283 1266.32C107.132 1280.77 99.7504 1291.41 89.1107 1298.27C78.5235 1305.15 67.4635 1308.33 55.9043 1307.83C43.7672 1306.73 33.2589 1302 24.3793 1293.64C15.4735 1285.24 9.29988 1273.68 5.88467 1258.97C3.783 1249.72 2.31183 1240.44 1.47117 1231.12C0.6305 1221.82 0.131352 1212.31 0 1202.64C0.420333 1194.1 1.18219 1178.84 2.31183 1156.82C3.49402 1134.76 5.07027 1109.3 7.04058 1080.43C8.98462 1051.58 11.1388 1022.11 13.4507 992.054C15.7625 961.948 18.0743 933.943 20.3862 908.092C22.7505 882.242 25.0098 862.066 27.1115 847.564C27.9522 841.049 29.2394 834.481 30.9996 827.809C32.8123 821.083 35.5707 815.514 39.3012 811.1C43.9774 805.794 49.9409 800.54 57.1653 795.338C64.4424 790.084 71.1414 787.562 77.2363 787.772C83.7514 788.613 90.6344 791.844 97.9377 797.44C105.215 802.983 110.259 808.841 113.07 814.988C116.774 823.763 119.165 833.22 120.215 843.361C121.266 853.449 121.844 863.274 122.002 872.784Z" fill="#2C5F4F"/>
<path d="M241.151 1005.9C268.946 990.978 298.238 988.455 329.001 998.333C337.46 1001.22 346.051 1003.59 354.746 1005.48C363.494 1007.32 372.111 1008.92 380.597 1010.31C403.006 1014.8 422.236 1023.82 438.287 1037.32C454.312 1050.85 465.95 1067.35 473.175 1086.81C480.452 1106.23 481.897 1127.14 477.483 1149.55C472.702 1176.61 464.453 1201.56 452.684 1224.47C440.914 1247.38 424.784 1267.95 404.346 1286.16C370.85 1315.87 331.26 1329.53 285.602 1327.14C270.259 1322.94 254.707 1319.13 238.944 1315.68C223.234 1312.27 207.944 1307.7 193.022 1302.02C163.941 1290.26 143.108 1272.55 130.498 1248.85C117.888 1225.1 114.526 1197.78 120.41 1166.89C127.477 1130.48 141.243 1098.98 161.708 1072.42C182.226 1045.88 208.707 1023.71 241.151 1005.9ZM337.675 1099.21C323.675 1097.21 310.508 1104.37 305.675 1108.21C300.077 1115.41 298.341 1121.87 298.672 1124.21C295.673 1121.04 280.87 1115.61 269.67 1113.21C255.67 1110.21 241.675 1125.71 242.675 1162.21C243.675 1198.7 290.175 1207.7 305.675 1203.71C321.175 1199.71 350.175 1168.21 357.675 1156.71C365.175 1145.21 355.175 1101.71 337.675 1099.21Z" fill="#2C5F4F"/>
<path d="M802.451 1013.14C813.642 1022.17 820.551 1034.1 823.152 1048.87C825.806 1063.58 822.574 1078.05 813.485 1092.26C790.366 1127.36 767.353 1162.46 744.445 1197.56C721.537 1232.6 697.814 1267.2 673.303 1301.38C655.649 1325.29 634.449 1337.32 609.728 1337.53C585.06 1337.74 563.176 1326.39 544.051 1303.48C537.378 1295.08 531.362 1286.12 525.977 1276.58C520.565 1267.07 516.335 1257.43 513.261 1247.68C503.935 1217.16 495.135 1186.37 486.886 1155.31C478.689 1124.21 470.493 1093.16 462.296 1062.11C458.355 1045.87 457.515 1029.74 459.774 1013.77C461.455 998.163 468.417 987.996 480.686 983.293C492.928 978.538 504.881 981.165 516.519 991.174C523.717 997.558 530.311 1004.78 536.275 1012.82C542.291 1020.89 547.65 1029.29 552.352 1038.04C562.651 1057.11 572.765 1076.66 582.722 1096.68C592.652 1116.72 602.924 1137.29 613.511 1158.36C624.702 1144.28 635.631 1130.3 646.297 1116.43C657.015 1102.51 667.681 1088.74 678.347 1075.14C685.756 1065.89 693.19 1056.54 700.625 1047.08C708.112 1037.57 716.282 1028.69 725.109 1020.49C737.142 1009.43 750.251 1003.31 764.411 1002.1C778.544 1000.92 791.233 1004.6 802.451 1013.14Z" fill="#2C5F4F"/>
<path d="M1107.33 1030.57C1125.62 1051.03 1135.76 1072.76 1137.81 1095.72C1139.91 1118.63 1134.5 1139.54 1121.62 1158.46C1108.73 1177.32 1089.29 1190.69 1063.3 1198.6C1042.42 1204.85 1020.74 1208.87 998.257 1210.68C975.769 1212.52 952.651 1215.1 928.902 1218.46C935.838 1220.85 942.484 1223.29 948.868 1225.81C955.304 1228.34 961.793 1230.28 968.308 1231.59C981.181 1234.62 994.29 1237.06 1007.61 1238.95C1020.9 1240.79 1033.72 1243.94 1046.07 1248.41C1063.86 1255.21 1074.34 1265.85 1077.49 1280.35C1080.64 1294.85 1075.13 1308.62 1060.99 1321.65C1053.77 1328.87 1044.73 1335.15 1033.88 1340.46C1023.08 1345.71 1012.65 1348.63 1002.57 1349.18C956.171 1351.78 917.474 1344.24 886.448 1326.59C855.475 1308.94 833.119 1284.74 819.405 1253.98C805.666 1223.24 801.068 1189.32 805.639 1152.26C808.582 1129.22 813.521 1107.15 820.456 1086.05C827.444 1064.98 837.847 1044.91 851.666 1025.84C869.32 1000.91 891.44 983.361 918.079 973.194C944.691 963.053 972.932 961.609 1002.78 968.886C1045.23 978.291 1080.06 998.834 1107.33 1030.57ZM1038.08 1100.13C1039.06 1100.21 1040.19 1099.92 1041.45 1099.29C1042.76 1098.61 1044.49 1097.77 1046.6 1096.77C1037.56 1082.85 1026 1072.68 1011.92 1066.3C997.837 1059.94 984.439 1058.21 971.776 1061.15C960.059 1064.17 951.285 1069.71 945.4 1077.75C939.568 1085.82 934.918 1095.56 931.424 1106.97C949.971 1105.7 968.098 1104.6 985.752 1103.6C1003.46 1102.63 1020.9 1101.47 1038.08 1100.13Z" fill="#2C5F4F"/>
<path d="M311.647 315.289C329.268 351.509 335.416 389.787 330.065 430.122C327.647 446.997 321.525 462.638 311.647 477.043C301.769 491.449 289.318 503.591 274.295 513.469C259.272 523.347 242.808 530.344 224.904 534.46C207 538.576 188.787 539.193 170.266 536.312C166.973 535.901 163.578 535.386 160.079 534.769C156.581 534.151 152.362 533.431 147.423 532.608C147.423 549.895 147.526 566.667 147.731 582.925C147.937 599.182 147.834 615.131 147.423 630.772C147.423 637.357 147.011 643.943 146.188 650.528C145.365 657.113 144.13 663.493 142.484 669.667C138.779 681.191 132.194 689.938 122.727 695.906C113.261 701.874 102.971 704.446 91.8582 703.623C80.7453 702.388 71.073 697.964 62.8412 690.349C54.6094 682.735 49.2588 673.165 46.7893 661.641C46.7893 661.229 46.6864 660.612 46.4806 659.789C46.2748 658.966 46.1719 658.142 46.1719 657.319C48.6414 626.45 49.1559 595.478 47.7153 564.403C46.2748 533.328 45.9661 502.356 46.7893 471.487C47.6124 440.618 52.1399 409.749 60.3717 378.879C64.4876 363.651 67.4716 348.01 69.3237 331.958C71.1759 315.906 73.9541 300.06 77.6584 284.42C80.5395 272.484 86.096 265.487 94.3278 263.429C102.56 261.371 111.203 264.664 120.258 273.307C121.081 274.13 122.007 275.056 123.036 276.085C124.065 277.114 124.991 278.246 125.814 279.481C135.692 275.365 145.468 271.249 155.14 267.133C164.812 263.017 174.793 259.724 185.083 257.255C213.483 249.512 238.384 250.67 259.786 260.753C281.189 270.786 298.476 288.947 311.647 315.289ZM187.172 448.205C224.904 450.966 243.031 431.927 248.672 417.205C256.092 397.84 251.672 363.205 242.672 333.705C236.557 313.661 228.172 358.705 202.672 358.705C179.672 358.705 177.172 326.705 168.672 330.205C160.44 338.643 162.172 356.205 160.172 367.205C157.126 383.96 148.672 390.705 148.672 406.705C148.672 413.884 151.172 445.571 187.172 448.205Z" fill="#C85C3F"/>
</svg>