<svg width="1178" height="1392" viewBox="0 0 1178 1392" fill="none" xmlns="http://www.w3.org/2000/svg">
<path d="M830.497 913.924C830.546 914.393 830.596 914.615 830.596 914.615C843.486 913.232 856.425 911.825 869.414 910.368C882.378 908.861 895.12 908.096 907.64 908.096C912.43 907.972 917.764 909.232 923.641 911.849C929.568 914.492 933.025 917.529 934.013 920.937C935.445 925.628 935.42 931.258 933.914 937.827C932.383 944.346 929.716 948.964 925.913 951.655C902.8 971.484 878.057 986.597 851.733 996.993C825.459 1007.41 796.617 1009.61 765.207 1003.61C735.624 998.549 711.375 985.091 692.41 963.212C673.495 941.358 663.123 915.282 661.296 884.983C659.518 857.326 663.074 830.706 671.964 805.074C680.903 779.393 694.04 756.428 711.375 736.129C728.685 715.856 749.304 700.151 773.208 689.014C787.678 682.05 802.371 678.198 817.261 677.457C832.201 676.741 847.19 680.692 862.203 689.31C875.884 697.558 886.7 709.337 894.601 724.672C902.503 740.031 903.812 754.699 898.552 768.725C895.441 777.096 892.256 781.442 888.971 781.763C885.736 782.035 882.403 783.047 878.995 784.825C873.908 788.06 869.167 788.554 864.772 786.307C860.351 784.084 856.993 781.269 854.697 777.911C845.214 765.663 836.744 758.057 829.312 755.094C821.854 752.082 812.224 755.489 800.371 765.367C783.505 779.393 771.553 795.74 764.515 814.359C757.527 833.003 754.169 852.683 754.44 873.426C754.836 885.156 758.391 894.712 765.108 902.071C771.874 909.454 781.332 913.8 793.456 915.109C799.58 915.776 805.754 915.8 812.026 915.208C818.273 914.566 824.422 914.121 830.497 913.924Z" fill="#F6F4F0"/>
<mask id="mask0_1412_30" style="mask-type:luminance" maskUnits="userSpaceOnUse" x="12" y="0" width="1152" height="784">
<path d="M1163.48 0H12.8125V783.286H1163.48V0Z" fill="white"/>
</mask>
<g mask="url(#mask0_1412_30)">
<path d="M631.752 486.764C635.137 501.494 634.893 514.166 630.994 524.78C627.149 535.394 620.055 542.868 609.657 547.2C587.995 555.865 568.933 546.334 552.47 518.607C552.037 518.173 551.604 517.632 551.171 516.982C550.737 516.332 550.088 515.574 549.221 514.708C540.99 520.34 533.083 525.972 525.502 531.604C517.92 537.236 510.23 542.218 502.432 546.55C482.936 556.515 463.549 561.064 444.27 560.197C424.991 559.331 407.662 553.482 392.282 542.651C376.902 531.82 364.88 516.44 356.216 496.512C341.486 461.42 335.095 426.436 337.045 391.561C338.994 356.686 346.901 321.919 360.764 287.26C363.797 279.895 368.346 273.884 374.411 269.172C380.477 264.407 388.058 262.891 397.156 264.623C407.12 266.356 413.836 270.58 417.301 277.296C420.767 283.956 422.717 291.809 423.15 300.907C424.017 313.471 424.558 326.251 424.775 339.248C424.991 352.245 425.75 365.242 427.049 378.239C428.349 388.203 429.974 398.276 431.923 408.457C433.873 418.638 436.364 428.711 439.396 438.675C442.862 449.939 447.736 456.113 454.018 457.196C460.3 458.279 466.907 454.055 473.838 444.524C479.47 436.725 484.344 428.169 488.46 418.855C492.576 409.54 495.933 400.334 498.533 391.236C503.732 373.473 508.281 355.494 512.18 337.298C516.079 319.103 520.194 301.123 524.527 283.361C527.993 271.311 534.275 262.132 543.372 255.85C552.47 249.569 562.651 247.077 573.915 248.377C585.613 250.11 595.036 255.092 602.184 263.324C609.332 271.501 613.34 281.844 614.206 294.408C614.206 296.574 614.206 298.741 614.206 300.907C614.206 303.073 613.99 305.239 613.556 307.405C609.224 338.165 609.441 368.383 614.206 398.059C618.972 427.736 624.82 457.304 631.752 486.764Z" fill="#F6F4F0"/>
<path d="M892.285 338.596C894.018 344.662 894.343 351.702 893.26 359.716C892.177 367.731 889.686 373.905 885.787 378.237C882.321 382.569 876.797 385.494 869.216 387.01C861.634 388.526 854.594 389.068 848.095 388.635C841.597 388.201 835.098 386.36 828.6 383.111C822.101 379.862 815.819 376.721 809.754 373.688C801.09 369.356 793.508 368.164 787.009 370.114C780.511 372.064 775.962 377.154 773.363 385.385C762.532 415.279 753.65 446.038 746.719 477.664C744.986 484.596 744.661 491.853 745.744 499.434C746.827 507.016 746.935 514.489 746.069 521.854C744.769 537.884 738.812 550.989 728.198 561.17C717.584 571.351 704.912 576.875 690.182 577.741C675.019 578.608 661.805 574.6 650.541 565.719C639.277 556.838 631.695 544.599 627.796 529.002C626.93 525.103 626.172 521.204 625.522 517.305C624.872 513.406 624.547 509.29 624.547 504.958C624.98 466.4 625.305 427.734 625.522 388.96C625.738 350.185 626.063 311.573 626.496 273.07C626.496 269.171 626.713 264.947 627.146 260.398C627.58 255.849 629.096 252.274 631.695 249.675C636.028 244.476 640.901 238.953 646.317 233.104C651.732 227.255 657.256 224.114 662.888 223.681C668.52 223.248 674.694 225.089 681.409 229.205C688.124 233.32 693.864 237.978 698.63 243.177C702.529 247.509 705.453 253.033 707.403 259.748C709.352 266.463 711.627 273.259 714.226 280.11C755.817 257.663 796.974 256.796 837.698 277.51C851.128 284.009 862.609 292.24 872.14 302.205C881.671 312.169 888.386 324.3 892.285 338.596Z" fill="#F6F4F0"/>
<path d="M1152.18 338.596C1153.91 344.662 1154.23 351.702 1153.15 359.716C1152.07 367.731 1149.58 373.905 1145.68 378.237C1142.21 382.569 1136.69 385.494 1129.11 387.01C1121.52 388.526 1114.48 389.068 1107.99 388.635C1101.49 388.201 1094.99 386.36 1088.49 383.111C1081.99 379.862 1075.71 376.721 1069.64 373.688C1060.98 369.356 1053.4 368.164 1046.9 370.114C1040.4 372.064 1035.85 377.154 1033.25 385.385C1022.42 415.279 1013.54 446.038 1006.61 477.664C1004.88 484.596 1004.55 491.853 1005.63 499.434C1006.72 507.016 1006.83 514.489 1005.96 521.854C1004.66 537.884 998.703 550.989 988.089 561.17C977.474 571.351 964.802 576.875 950.072 577.741C934.909 578.608 921.696 574.6 910.432 565.719C899.167 556.838 891.586 544.599 887.687 529.002C886.82 525.103 886.062 521.204 885.412 517.305C884.762 513.406 884.438 509.29 884.438 504.958C884.871 466.4 885.196 427.734 885.412 388.96C885.629 350.185 885.954 311.573 886.387 273.07C886.387 269.171 886.604 264.947 887.037 260.398C887.47 255.849 888.986 252.274 891.586 249.675C895.918 244.476 900.792 238.953 906.207 233.104C911.623 227.255 917.147 224.114 922.779 223.681C928.411 223.248 934.584 225.089 941.299 229.205C948.015 233.32 953.755 237.978 958.52 243.177C962.42 247.509 965.344 253.033 967.293 259.748C969.243 266.463 971.517 273.259 974.117 280.11C1015.71 257.663 1056.86 256.796 1097.59 277.51C1111.02 284.009 1122.5 292.24 1132.03 302.205C1141.56 312.169 1148.28 324.3 1152.18 338.596Z" fill="#F6F4F0"/>
</g>
<mask id="mask1_1412_30" style="mask-type:luminance" maskUnits="userSpaceOnUse" x="47" y="395" width="1131" height="868">
<path d="M1177.32 395.109H47.4688V1262.68H1177.32V395.109Z" fill="white"/>
</mask>
<g mask="url(#mask1_1412_30)">
<path d="M241.673 558.976C247.305 556.458 252.937 554.509 258.569 553.128C264.255 551.774 269.21 550.528 273.407 549.445C292.036 550.745 309.149 553.886 324.746 558.868C340.342 563.796 354.666 571.919 367.744 583.238C375.109 589.682 380.443 596.993 383.774 605.224C387.158 613.401 387.348 622.526 384.315 632.626C381.337 642.239 376.355 648.71 369.369 652.013C362.356 655.263 354.639 657.293 346.191 658.079C340.477 658.295 334.52 658.62 328.32 659.053C322.173 659.487 316.027 659.812 309.907 660.028C274.301 661.626 253.072 681.094 246.222 718.406C245.707 719.869 245.247 721.412 244.814 723.064C244.435 724.742 244.272 726.259 244.272 727.613C243.893 744.807 243.839 757.289 244.056 765.087C244.327 772.886 245.707 777.949 248.172 780.251C250.608 782.579 255.266 783.148 262.143 781.983C268.994 780.765 278.552 779.249 290.845 777.435C294.148 777.299 297.587 777.055 301.134 776.676C304.736 776.324 308.201 776.108 311.532 776.026C325.747 776.46 337.634 780.684 347.165 788.699C356.697 796.713 362.599 807.111 364.928 819.891C366.796 833.186 364.224 845.398 357.238 856.5C350.225 867.628 339.638 875.102 325.504 878.919C316.622 881.6 307.443 883.685 297.993 885.201C288.516 886.664 279.039 887.774 269.508 888.559C261.927 889.29 256.863 891.24 254.345 894.408C251.881 897.603 251.015 903.235 251.746 911.304C253.262 929.797 254.399 948.02 255.212 965.999C256.078 983.979 256.782 1002.23 257.378 1020.7C257.594 1025.89 257.757 1031.26 257.919 1036.72C258.136 1042.14 257.378 1047.07 255.645 1051.45C252.883 1057.25 249.363 1062.94 245.031 1068.57C240.698 1074.2 236.203 1077.77 231.6 1079.29C227.268 1080.89 221.636 1080.26 214.704 1077.45C207.772 1074.58 203.034 1071.03 200.516 1066.83C192.42 1051.83 184.811 1036.59 177.663 1021.13C170.569 1005.69 163.691 990.044 156.976 974.231C154.295 967.164 152.481 959.501 151.56 951.269C150.613 942.984 149.503 934.78 148.203 926.683C146.903 915.419 144.331 905.672 140.513 897.44C136.749 889.209 129.059 882.467 117.443 877.187C108.264 872.719 101.982 866.247 98.5976 857.799C95.2671 849.351 94.861 840.687 97.4062 831.805C99.9244 822.924 105.15 815.532 113.111 809.602C119.609 805.134 123.725 800.261 125.458 794.98C127.191 789.646 128.41 783.446 129.141 776.351C129.574 760.701 130.359 745.24 131.523 729.995C132.661 714.778 134.935 699.723 138.347 684.831C144.899 654.152 157.111 628.456 174.955 607.715C192.772 587.001 215.029 570.755 241.673 558.976Z" fill="#F6F4F0"/>
<path d="M637.336 722.038C655.965 740.017 667.039 759.729 670.586 781.174C674.107 802.619 670.505 822.711 659.756 841.394C648.979 860.023 631.65 873.968 607.768 883.201C588.543 890.512 568.398 895.819 547.332 899.122C526.32 902.453 504.712 906.596 482.563 911.578C489.278 913.257 495.723 915.044 501.95 916.993C508.232 918.943 514.433 920.297 520.579 921.001C532.981 922.95 545.49 924.331 558.054 925.116C570.672 925.929 583.019 928.041 595.096 931.506C612.344 936.651 622.958 945.884 626.938 959.233C630.973 972.61 626.83 985.931 614.483 999.199C608.038 1006.56 599.915 1013.14 590.113 1018.91C580.284 1024.71 570.645 1028.2 561.195 1029.42C517.655 1035.05 480.668 1030.66 450.287 1016.2C419.961 1001.77 397.162 980.57 381.945 952.627C366.781 924.629 360.093 893.003 361.908 857.748C363.045 835.87 366.159 814.804 371.222 794.496C376.258 774.134 384.652 754.503 396.35 735.577C411.215 710.828 430.792 692.741 455.053 681.314C479.368 669.833 505.876 666.476 534.551 671.241C575.194 677.036 609.446 693.959 637.336 722.038ZM577.008 792.33C577.929 792.276 578.985 791.87 580.149 791.139C581.367 790.435 582.884 789.514 584.698 788.431C575.221 775.949 563.632 767.257 549.931 762.329C536.284 757.347 523.558 756.697 511.806 760.379C500.976 764.062 493.069 769.91 488.087 777.925C483.105 785.886 479.368 795.336 476.931 806.302C494.396 803.865 511.4 801.536 527.944 799.37C544.543 797.15 560.897 794.794 577.008 792.33Z" fill="#F6F4F0"/>
<path d="M1179.78 925.287C1183.95 936.064 1184.49 945.974 1181.41 955.072C1178.37 964.17 1172.96 972.672 1165.16 980.525C1153.6 991.87 1138.87 999.749 1120.97 1004.14C1103.13 1008.47 1084.63 1009.42 1065.52 1006.95C1046.45 1004.43 1029.83 997.935 1015.69 987.456C981.739 963.493 961.973 930.676 956.341 889.004C953.958 874.87 952.252 860.465 951.25 845.789C950.302 831.059 949.409 816.6 948.542 802.357C948.326 795.209 947.053 789.442 944.752 785.028C942.504 780.641 937.982 777.338 931.213 775.172C921.601 771.652 913.938 766.453 908.252 759.575C902.538 752.644 900.941 744.385 903.486 734.773C905.652 727.625 909.578 720.53 915.292 713.436C921.059 706.288 927.233 701.414 933.812 698.814C942.179 694.78 948.542 690.312 952.875 685.384C957.261 680.483 959.509 673.308 959.59 663.831C959.806 655.247 960.592 646.772 961.973 638.378C963.408 630.012 964.707 621.564 965.872 613.034C970.042 583.872 982.118 569.223 1002.05 569.061C1022.54 568.844 1035.41 583.141 1040.6 611.951C1042.34 621.916 1043.45 632.042 1043.96 642.277C1044.53 652.458 1044.99 662.531 1045.37 672.496C1045.8 685.79 1052.65 692.478 1065.95 692.533C1074.53 692.695 1083.09 692.966 1091.62 693.399C1100.2 693.832 1108.57 694.861 1116.75 696.432C1130.09 699.329 1140.49 705.8 1147.94 715.819C1155.36 725.783 1158.82 736.668 1158.34 748.42C1157.74 760.848 1153.08 771.598 1144.36 780.696C1135.62 789.739 1124.65 794.965 1111.44 796.4C1101.96 797.646 1092.11 798.296 1081.87 798.35C1071.69 798.431 1059.94 798.675 1046.67 799.108C1048.97 813.351 1051.06 827.674 1052.95 842.106C1054.9 856.484 1057.31 870.781 1060.21 884.997C1062.29 893.445 1066.6 899.483 1073.1 903.084C1079.65 906.712 1087.2 907.904 1095.73 906.658C1101.42 905.521 1107 904.248 1112.41 902.868C1117.83 901.514 1123.38 900.485 1129.09 899.835C1139.92 898.535 1149.78 899.781 1158.66 903.517C1167.6 907.281 1174.64 914.538 1179.78 925.287Z" fill="#F6F4F0"/>
</g>
<path d="M125.746 899.571C127.181 950.476 128.616 1001.38 130.078 1052.29C131.595 1103.14 132.272 1153.96 132.136 1204.78C131.92 1221.41 130.133 1238.22 126.829 1255.26C123.58 1272.23 119.518 1288.89 114.699 1305.19C110.42 1320.08 102.812 1331.05 91.8455 1338.11C80.9335 1345.21 69.534 1348.48 57.6201 1347.97C45.1105 1346.83 34.2796 1341.96 25.1275 1333.35C15.9484 1324.68 9.5853 1312.77 6.06527 1297.6C3.8991 1288.07 2.38278 1278.52 1.51632 1268.9C0.64985 1259.32 0.135384 1249.52 0 1239.55C0.433234 1230.75 1.21847 1215.02 2.38278 1192.33C3.60125 1169.58 5.22588 1143.35 7.25666 1113.59C9.26037 1083.86 11.4807 1053.48 13.8635 1022.5C16.2463 991.471 18.629 962.607 21.0118 935.963C23.4488 909.319 25.7774 888.524 27.9436 873.577C28.81 866.862 30.1368 860.093 31.951 853.215C33.8193 846.284 36.6624 840.543 40.5073 835.994C45.3271 830.525 51.4736 825.109 58.9198 819.748C66.4201 814.333 73.3248 811.733 79.6067 811.95C86.3218 812.816 93.416 816.147 100.943 821.914C108.444 827.628 113.643 833.666 116.54 840.002C120.358 849.046 122.822 858.793 123.905 869.245C124.988 879.643 125.584 889.77 125.746 899.571Z" fill="#F6F4F0"/>
<path d="M248.552 1036.77C277.199 1021.39 307.39 1018.79 339.098 1028.97C347.816 1031.95 356.671 1034.39 365.634 1036.34C374.65 1038.23 383.532 1039.88 392.277 1041.32C415.374 1045.95 435.195 1055.24 451.739 1069.15C468.256 1083.1 480.251 1100.1 487.697 1120.17C495.198 1140.18 496.687 1161.73 492.138 1184.83C487.21 1212.72 478.708 1238.44 466.577 1262.05C454.447 1285.66 437.821 1306.86 416.755 1325.63C382.232 1356.25 341.426 1370.33 294.366 1367.87C278.553 1363.54 262.523 1359.61 246.277 1356.06C230.085 1352.54 214.327 1347.83 198.947 1341.98C168.973 1329.85 147.501 1311.6 134.504 1287.18C121.507 1262.7 118.04 1234.54 124.105 1202.7C131.389 1165.17 145.578 1132.7 166.671 1105.33C187.818 1077.98 215.112 1055.13 248.552 1036.77ZM348.039 1132.94C333.61 1130.88 320.04 1138.26 315.058 1142.21C309.289 1149.64 307.498 1156.3 307.839 1158.71C304.747 1155.44 289.49 1149.84 277.946 1147.37C263.517 1144.28 249.093 1160.25 250.124 1197.87C251.155 1235.49 299.082 1244.77 315.058 1240.65C331.033 1236.52 360.923 1204.06 368.653 1192.2C376.383 1180.35 366.076 1135.52 348.039 1132.94Z" fill="#F6F4F0"/>
<path d="M827.076 1044.23C838.611 1053.55 845.732 1065.84 848.413 1081.06C851.147 1096.22 847.817 1111.14 838.448 1125.79C814.62 1161.96 790.901 1198.14 767.29 1234.31C743.678 1270.43 719.228 1306.09 693.965 1341.32C675.769 1365.96 653.918 1378.36 628.438 1378.58C603.013 1378.8 580.458 1367.1 560.746 1343.49C553.868 1334.82 547.667 1325.59 542.117 1315.76C536.539 1305.96 532.179 1296.02 529.011 1285.98C519.399 1254.51 510.328 1222.78 501.826 1190.77C493.378 1158.71 484.93 1126.71 476.482 1094.7C472.42 1077.97 471.554 1061.34 473.882 1044.88C475.615 1028.8 482.791 1018.32 495.436 1013.47C508.054 1008.57 520.374 1011.28 532.369 1021.59C539.788 1028.17 546.584 1035.62 552.731 1043.91C558.931 1052.22 564.455 1060.88 569.302 1069.9C579.916 1089.56 590.341 1109.7 600.603 1130.34C610.838 1151 621.425 1172.2 632.337 1193.91C643.872 1179.4 655.136 1164.99 666.13 1150.7C677.177 1136.35 688.17 1122.16 699.164 1108.13C706.799 1098.6 714.462 1088.96 722.125 1079.21C729.842 1069.41 738.263 1060.26 747.361 1051.81C759.762 1040.41 773.274 1034.1 787.868 1032.86C802.436 1031.64 815.514 1035.43 827.076 1044.23Z" fill="#F6F4F0"/>
<path d="M1141.32 1062.2C1160.16 1083.29 1170.61 1105.68 1172.73 1129.35C1174.89 1152.96 1169.31 1174.51 1156.05 1194.01C1142.75 1213.45 1122.72 1227.23 1095.94 1235.38C1074.41 1241.83 1052.07 1245.97 1028.89 1247.84C1005.72 1249.73 981.887 1252.39 957.409 1255.85C964.558 1258.32 971.408 1260.84 977.988 1263.44C984.622 1266.03 991.31 1268.04 998.025 1269.39C1011.29 1272.51 1024.8 1275.02 1038.53 1276.97C1052.23 1278.87 1065.45 1282.12 1078.17 1286.72C1096.5 1293.73 1107.31 1304.7 1110.56 1319.65C1113.81 1334.59 1108.12 1348.78 1093.55 1362.21C1086.11 1369.66 1076.79 1376.13 1065.61 1381.6C1054.48 1387.02 1043.73 1390.02 1033.33 1390.59C985.515 1393.27 945.631 1385.5 913.653 1367.3C881.729 1349.11 858.686 1324.17 844.552 1292.46C830.391 1260.78 825.652 1225.83 830.364 1187.62C833.396 1163.87 838.487 1141.13 845.635 1119.38C852.838 1097.67 863.56 1076.98 877.803 1057.32C895.999 1031.63 918.798 1013.54 946.254 1003.06C973.683 992.61 1002.79 991.121 1033.55 998.621C1077.31 1008.31 1113.21 1029.49 1141.32 1062.2ZM1069.94 1133.9C1070.94 1133.98 1072.11 1133.68 1073.41 1133.03C1074.76 1132.33 1076.55 1131.46 1078.71 1130.43C1069.4 1116.08 1057.49 1105.6 1042.97 1099.02C1028.46 1092.47 1014.65 1090.68 1001.6 1093.72C989.523 1096.83 980.479 1102.54 974.414 1110.83C968.403 1119.14 963.61 1129.19 960.009 1140.94C979.125 1139.64 997.808 1138.5 1016 1137.47C1034.25 1136.47 1052.23 1135.28 1069.94 1133.9Z" fill="#F6F4F0"/>
<path d="M321.208 324.965C339.37 362.297 345.707 401.749 340.192 443.323C337.7 460.716 331.39 476.836 321.208 491.684C311.027 506.532 298.194 519.046 282.71 529.228C267.226 539.409 250.257 546.621 231.804 550.863C213.35 555.105 194.578 555.741 175.488 552.772C172.095 552.348 168.595 551.817 164.989 551.181C161.383 550.545 157.035 549.802 151.944 548.954C151.944 566.771 152.05 584.058 152.262 600.815C152.475 617.572 152.368 634.01 151.944 650.13C151.944 656.918 151.52 663.706 150.672 670.493C149.823 677.281 148.55 683.856 146.854 690.219C143.036 702.098 136.248 711.112 126.491 717.263C116.734 723.415 106.128 726.066 94.6744 725.218C83.2205 723.945 73.2513 719.384 64.7669 711.536C56.2825 703.688 50.7676 693.825 48.2223 681.947C48.2223 681.523 48.1162 680.886 47.9041 680.038C47.692 679.19 47.5859 678.341 47.5859 677.493C50.1313 645.676 50.6615 613.754 49.1768 581.725C47.692 549.696 47.3738 517.774 48.2223 485.957C49.0707 454.141 53.7371 422.324 62.2216 390.507C66.4638 374.811 69.5394 358.691 71.4484 342.146C73.3573 325.602 76.2208 309.269 80.0388 293.149C83.0084 280.846 88.7353 273.635 97.2198 271.513C105.704 269.392 114.613 272.786 123.946 281.695C124.794 282.543 125.749 283.498 126.809 284.558C127.87 285.619 128.824 286.785 129.673 288.058C139.854 283.816 149.929 279.574 159.898 275.331C169.868 271.089 180.155 267.695 190.76 265.15C220.032 257.17 245.697 258.363 267.756 268.756C289.816 279.096 307.633 297.815 321.208 324.965ZM192.913 461.961C231.804 464.806 250.487 445.183 256.301 430.009C263.948 410.05 259.393 374.352 250.117 343.947C243.814 323.288 235.172 369.714 208.889 369.714C185.183 369.714 182.606 336.732 173.846 340.339C165.361 349.036 167.146 367.137 165.085 378.475C161.945 395.744 153.232 402.696 153.232 419.187C153.232 426.587 155.808 459.246 192.913 461.961Z" fill="#F6F4F0"/>
</svg>
