<svg width="391" height="521" viewBox="0 0 391 521" fill="none" xmlns="http://www.w3.org/2000/svg">
<path d="M384.002 85.0245C385.394 134.414 386.786 183.803 388.205 233.192C389.676 282.529 390.333 331.839 390.202 381.149C389.992 397.28 388.258 413.594 385.053 430.118C381.9 446.59 377.959 462.747 373.283 478.562C369.132 493.011 361.75 503.65 351.111 510.507C340.524 517.39 329.464 520.569 317.904 520.07C305.767 518.966 295.259 514.237 286.379 505.883C277.474 497.477 271.3 485.917 267.885 471.206C265.783 461.958 264.312 452.685 263.471 443.359C262.631 434.059 262.131 424.549 262 414.881C262.42 406.343 263.182 391.08 264.312 369.065C265.494 346.997 267.07 321.541 269.041 292.669C270.985 263.824 273.139 234.348 275.451 204.294C277.763 174.188 280.074 146.183 282.386 120.333C284.751 94.482 287.01 74.306 289.112 59.8045C289.952 53.2894 291.239 46.7217 293 40.0489C294.812 33.3235 297.571 27.7541 301.301 23.3406C305.977 18.0339 311.941 12.7798 319.165 7.57813C326.442 2.32396 333.141 -0.198042 339.236 0.012125C345.751 0.852792 352.634 4.08411 359.938 9.67979C367.215 15.2229 372.259 21.0813 375.07 27.2287C378.774 36.0032 381.165 45.4607 382.215 55.6012C383.266 65.6892 383.844 75.5145 384.002 85.0245Z" fill="#2C5F4F"/>
<path d="M265.475 131.084C283.096 167.304 289.244 205.581 283.893 245.917C281.475 262.792 275.353 278.433 265.475 292.838C255.597 307.244 243.146 319.386 228.123 329.264C213.1 339.142 196.637 346.139 178.732 350.255C160.828 354.371 142.616 354.988 124.094 352.107C120.801 351.695 117.406 351.181 113.907 350.564C110.409 349.946 106.19 349.226 101.251 348.403C101.251 365.69 101.354 382.462 101.56 398.72C101.765 414.977 101.662 430.926 101.251 446.567C101.251 453.152 100.839 459.738 100.016 466.323C99.1929 472.908 97.9581 479.288 96.3118 485.462C92.6075 496.986 86.0221 505.733 76.5555 511.701C67.089 517.669 56.7993 520.241 45.6864 519.418C34.5735 518.183 24.9011 513.759 16.6693 506.144C8.43757 498.53 3.08692 488.96 0.617383 477.436C0.617383 477.024 0.514486 476.407 0.308692 475.584C0.102897 474.761 0 473.937 0 473.114C2.46953 442.245 2.98402 411.273 1.54346 380.198C0.102897 349.123 -0.205794 318.151 0.617383 287.282C1.44056 256.413 5.96804 225.544 14.1998 194.674C18.3157 179.446 21.2997 163.805 23.1519 147.753C25.004 131.701 27.7822 115.855 31.4865 100.215C34.3677 88.2787 39.9241 81.2816 48.1559 79.2237C56.3877 77.1658 65.031 80.4585 74.086 89.1018C74.9092 89.925 75.8352 90.8511 76.8642 91.8801C77.8932 92.909 78.8193 94.0409 79.6424 95.2757C89.5206 91.1598 99.2958 87.0439 108.968 82.928C118.64 78.8121 128.622 75.5194 138.911 73.0499C167.311 65.3069 192.212 66.4644 213.615 76.5484C235.017 86.5809 252.304 104.742 265.475 131.084ZM141 264C178.732 266.761 196.859 247.722 202.5 233C209.92 213.635 205.5 179 196.5 149.5C190.385 129.456 182 174.5 156.5 174.5C133.5 174.5 131 142.5 122.5 146C114.268 154.438 116 172 114 183C110.954 199.755 102.5 206.5 102.5 222.5C102.5 229.679 105 261.366 141 264Z" fill="#C85C3F"/>
</svg>
